<?xml version="1.0" encoding="UTF-8" standalone="no"?>
<!-- Created with Inkscape (http://www.inkscape.org/) -->

<svg
   xmlns:dc="http://purl.org/dc/elements/1.1/"
   xmlns:cc="http://creativecommons.org/ns#"
   xmlns:rdf="http://www.w3.org/1999/02/22-rdf-syntax-ns#"
   xmlns:svg="http://www.w3.org/2000/svg"
   xmlns="http://www.w3.org/2000/svg"
   xmlns:sodipodi="http://sodipodi.sourceforge.net/DTD/sodipodi-0.dtd"
   xmlns:inkscape="http://www.inkscape.org/namespaces/inkscape"
   width="210mm"
   height="297mm"
   viewBox="0 0 210 297"
   version="1.1"
   id="svg851"
   inkscape:version="0.92.3 (2405546, 2018-03-11)"
   sodipodi:docname="hands.svg"
   inkscape:export-filename="C:\develop6\fdn\dbgui\images\hands.png"
   inkscape:export-xdpi="97.25"
   inkscape:export-ydpi="97.25">
  <defs
     id="defs845" />
  <sodipodi:namedview
     id="base"
     pagecolor="#ffffff"
     bordercolor="#666666"
     borderopacity="1.0"
     inkscape:pageopacity="0.0"
     inkscape:pageshadow="2"
     inkscape:zoom="0.35"
     inkscape:cx="-64.285714"
     inkscape:cy="560"
     inkscape:document-units="mm"
     inkscape:current-layer="layer1"
     showgrid="false"
     inkscape:window-width="1366"
     inkscape:window-height="745"
     inkscape:window-x="-8"
     inkscape:window-y="-8"
     inkscape:window-maximized="1" />
  <metadata
     id="metadata848">
    <rdf:RDF>
      <cc:Work
         rdf:about="">
        <dc:format>image/svg+xml</dc:format>
        <dc:type
           rdf:resource="http://purl.org/dc/dcmitype/StillImage" />
        <dc:title></dc:title>
      </cc:Work>
    </rdf:RDF>
  </metadata>
  <g
     inkscape:label="Layer 1"
     inkscape:groupmode="layer"
     id="layer1">
    <path
       d="M 178.75497,95.434286 146.10875,63.995605 c -0.92003,-0.887159 -2.26545,-0.868722 -3.17257,0.03509 -0.0465,0.04722 -4.85267,4.821742 -10.72837,7.210415 -2.26144,0.919343 -5.5693,0.507294 -9.40263,0.03273 -5.2816,-0.653655 -11.85565,-1.46832 -18.38768,1.187157 C 98.429188,74.89544 93.962711,78.910867 90.623464,83.457328 85.010685,81.67289 79.37642,81.588216 73.859113,83.24796 c -6.699127,2.019379 -11.727695,6.923392 -15.768636,10.869051 -2.927278,2.861196 -5.444142,5.345178 -7.780474,6.029579 -5.998058,1.80473 -12.358967,0.97146 -12.419514,0.96285 -1.190963,-0.16287 -2.310974,0.69169 -2.63384,2.01607 l -11.432357,46.99392 c -0.340985,1.39525 0.31583,2.85671 1.507689,3.35462 l 31.845505,13.28894 -0.04058,0.0975 c -1.169517,2.81579 -1.312739,5.9796 -0.398292,8.915 0.915075,2.93742 2.776981,5.29065 5.237699,6.62606 2.46249,1.33471 5.235324,1.49699 7.805177,0.45225 0.574339,-0.23348 1.119458,-0.52966 1.637934,-0.86743 0.920557,2.9111 2.772168,5.24408 5.219703,6.57379 2.462502,1.33471 5.235156,1.49737 7.80526,0.45254 0.824821,-0.33532 1.59239,-0.79226 2.298395,-1.34239 0.94334,2.53583 2.656872,4.70741 5.000909,5.97663 2.463104,1.33673 5.232906,1.49567 7.802756,0.45095 0.648983,-0.26383 1.264163,-0.59501 1.842473,-0.98772 6.13841,4.32727 12.20411,3.99785 17.04705,2.02905 3.14595,-1.27893 5.77262,-3.24388 7.57194,-5.06559 1.78689,-0.0508 3.63071,-0.43202 5.39447,-1.14904 3.83414,-1.55871 6.95594,-4.51656 8.59372,-7.97861 1.31429,0.0711 2.64038,-0.14762 3.91836,-0.66714 2.57162,-1.04546 4.63073,-3.16783 5.79734,-5.98016 0.89192,-2.14122 1.18448,-4.48163 0.87185,-6.77173 1.75887,0.35077 3.54355,0.16938 5.18078,-0.49622 2.46108,-1.0005 4.59486,-3.07443 5.80128,-5.9749 1.03593,-2.49153 1.26106,-5.26337 0.668,-7.90186 0.99974,-0.0512 2.00329,-0.27482 2.97284,-0.66897 2.56958,-1.04463 4.63162,-3.17047 5.79886,-5.98077 1.17013,-2.81376 1.31299,-5.9797 0.39853,-8.9151 -0.91508,-2.93743 -2.77722,-5.29055 -5.23973,-6.62526 l -5.16244,-2.80309 18.15917,-28.987537 c 0.74321,-1.177455 0.56333,-2.808052 -0.40597,-3.739007 z M 71.187871,174.48739 c -0.611284,1.47648 -1.691698,2.58716 -3.03621,3.13374 -1.346281,0.54732 -2.795273,0.46297 -4.088383,-0.23736 -1.289194,-0.69964 -2.262445,-1.93152 -2.742092,-3.47119 -0.47847,-1.53591 -0.402858,-3.19189 0.206654,-4.66765 l 2.812641,-6.76032 c 0.613846,-1.47557 1.692039,-2.58697 3.036551,-3.13356 1.347802,-0.54793 2.798848,-0.46245 4.088296,0.23709 1.291593,0.70094 2.262191,1.93161 2.741201,3.46926 0.478474,1.53591 0.403745,3.19382 -0.206307,4.66784 z m 15.715494,3.63389 -1.049109,2.52978 c -0.614379,1.47382 -1.693209,2.58322 -3.037474,3.1297 -1.346274,0.5473 -2.797334,0.46184 -4.087382,-0.23322 -1.292125,-0.70269 -2.265122,-1.93465 -2.743596,-3.47057 -0.479013,-1.53765 -0.404284,-3.19555 0.20754,-4.6703 l 6.324379,-15.21027 c 0.614219,-1.47344 1.69232,-2.58514 3.038592,-3.13245 1.344267,-0.54648 2.797334,-0.46183 4.088385,0.23737 1.289203,0.69964 2.263086,1.93354 2.741473,3.46915 0.477932,1.53419 0.402728,3.18512 -0.204192,4.65819 l -5.272618,12.68628 c -0.0022,2.8e-4 -0.0025,0.005 -0.0059,0.006 z m 11.017373,10.75073 c -1.344517,0.54659 -2.795806,0.46123 -4.085511,-0.23365 -2.658811,-1.44148 -3.794026,-5.0856 -2.538148,-8.12926 l 5.273485,-12.68435 c 0.0028,-0.01 0.0053,-0.0197 0.0094,-0.0257 l 1.044365,-2.51482 c 0.612439,-1.47272 1.691269,-2.58211 3.039321,-3.13013 1.34274,-0.54587 2.79583,-0.46122 4.08654,0.2378 1.28927,0.69993 2.26306,1.93353 2.74145,3.46916 0.47848,1.53591 0.40347,3.19392 -0.20835,4.66866 l -6.32344,15.2122 c -0.61531,1.469 -1.693047,2.58283 -3.039064,3.13003 z m 18.433712,-2.98025 c 0.70782,1.11377 1.71715,1.99297 3.10279,2.67554 -3.39419,2.15845 -8.69105,4.00049 -14.52686,0.45971 0.15,-0.28892 0.29418,-0.59111 0.42259,-0.89992 l 6.32563,-15.21079 c 0.0778,-0.18732 0.14085,-0.37963 0.20733,-0.57339 4.39101,1.68913 4.11008,3.54255 3.6725,6.37177 -0.33129,2.12366 -0.73851,4.77217 0.79602,7.17708 z m 47.73007,-49.91324 c 1.28778,0.70248 2.26103,1.93435 2.74006,3.472 0.47793,1.53418 0.40311,3.19179 -0.20463,4.66683 -0.6145,1.4781 -1.69345,2.58332 -3.0395,3.13053 -1.34449,0.54658 -2.7967,0.46385 -4.08686,-0.23344 l -30.86126,-16.74613 c -1.21013,-0.65721 -2.66066,-0.0675 -3.23732,1.31607 -0.57777,1.38177 -0.061,3.04053 1.15226,3.69874 l 28.08136,15.23989 c 0.006,0.006 0.0105,0.009 0.0153,0.0117 1.29312,0.70033 2.26652,1.93181 2.745,3.46772 0.479,1.53764 0.40225,3.19638 -0.20957,4.67112 -0.61447,1.47354 -1.69233,2.58514 -3.03684,3.13172 -1.34452,0.5466 -2.79614,0.46104 -4.08599,-0.23607 l -5.16787,-2.80315 c -0.005,-0.002 -0.0105,-0.009 -0.0141,-0.008 0,-0.004 -0.005,-0.002 -0.009,-0.004 l -18.38489,-9.97795 c -1.21065,-0.65701 -2.66066,-0.0675 -3.23781,1.31627 -0.57526,1.38075 -0.0585,3.0395 1.15223,3.69874 l 18.40939,9.99383 c 1.2853,0.70545 2.25072,1.93139 2.72739,3.46152 0.4791,1.53794 0.40225,3.19638 -0.20592,4.66997 -0.61331,1.47731 -1.69243,2.58485 -3.03695,3.13144 l -0.003,0.001 c -1.34449,0.54658 -2.79404,0.4605 -4.08588,-0.23578 l -11.28916,-6.1267 c -1.21065,-0.65702 -2.66269,-0.0667 -3.23934,1.31688 -0.57449,1.38501 -0.0579,3.04347 1.15286,3.70076 l 10.35005,5.61549 c -1.18166,1.83797 -3.12555,3.45078 -5.40041,4.37558 -1.5082,0.61314 -3.07933,0.90081 -4.549,0.84246 -3.83951,-0.62804 -4.75514,-1.62641 -4.94409,-1.91822 -0.29357,-0.46192 -0.16508,-1.46142 0.0628,-2.94256 0.72473,-4.68094 0.73139,-9.86613 -7.73741,-12.89335 -0.0811,-0.93839 -0.24984,-1.87439 -0.53427,-2.78745 -0.91517,-2.9377 -2.77394,-5.28731 -5.23705,-6.62404 -2.46135,-1.33745 -5.23453,-1.49991 -7.804132,-0.45528 -0.824819,0.33531 -1.59184,0.79399 -2.298393,1.34239 -0.975616,-2.63213 -2.726213,-4.73882 -5.003555,-5.97327 -2.460708,-1.33543 -5.233796,-1.4976 -7.803398,-0.45297 -2.569602,1.04462 -4.629567,3.17158 -5.800354,5.98333 l -0.394069,0.94758 c -1.017746,-1.79927 -2.44302,-3.25052 -4.178903,-4.19449 -2.46135,-1.33745 -5.232921,-1.49567 -7.804545,-0.45023 -2.569603,1.04462 -4.629059,3.16682 -5.798954,5.98049 l -0.683835,1.64436 c -0.07471,-0.042 -0.144034,-0.0861 -0.224712,-0.1236 l -29.929875,-12.488 10.299017,-42.32433 c 2.647365,0.1475 7.418969,0.13122 12.140475,-1.29034 3.387382,-1.03287 6.45966,-4.01423 9.70316,-7.179828 3.851929,-3.763648 8.210361,-8.033441 13.846117,-9.719199 4.093296,-1.23194 8.268631,-1.319405 12.453181,-0.305729 -3.187699,5.871081 -4.874862,12.004856 -5.752944,16.482736 -0.476426,2.43276 -4.508003,24.01657 0.788029,31.93254 1.259824,1.88093 2.970528,2.92893 4.949405,3.03233 1.450627,0.0768 2.836612,-0.15087 4.121413,-0.67318 6.04119,-2.45594 8.634062,-10.67302 11.137512,-18.61703 1.83356,-5.81848 3.72651,-11.81414 6.67314,-14.13287 l 28.226,15.32176 2.98916,1.62077 15.6081,8.47189 c 0.003,-0.001 0.003,-0.001 0.003,-0.001 z m -7.54312,-10.24189 -16.75875,-9.09661 c -0.004,-2.9e-4 -0.004,-2.9e-4 -0.006,-0.002 l -29.34109,-15.92324 c -0.58482,-0.31713 -1.25624,-0.35322 -1.85767,-0.10871 -0.0493,0.0201 -0.10369,0.0441 -0.15177,0.0682 -5.39682,2.66778 -7.84152,10.41889 -10.20583,17.91556 -2.123353,6.73019 -4.319128,13.68911 -8.194265,15.26447 -0.697064,0.28338 -1.4379,0.40057 -2.269563,0.35703 -0.39479,-0.0219 -0.82692,-0.13991 -1.306174,-0.85752 -2.644144,-3.9519 -1.923518,-17.03973 0.09564,-27.34635 1.621768,-8.271677 6.309979,-22.952915 19.501302,-28.315618 5.4838,-2.229337 11.1919,-1.518846 16.23387,-0.8951 4.24139,0.523596 8.24704,1.020598 11.55645,-0.324778 4.60128,-1.870571 8.54868,-4.931562 10.66008,-6.757049 l 29.40465,28.310864 z"
       id="path2"
       inkscape:connector-curvature="0"
       style="fill:#1100bd;fill-opacity:1;stroke:#566963;stroke-width:0.28703666;stroke-opacity:1" />
  </g>
</svg>
