<?xml version="1.0" encoding="UTF-8" standalone="no"?>
<!-- Created with Inkscape (http://www.inkscape.org/) -->

<svg
   xmlns:dc="http://purl.org/dc/elements/1.1/"
   xmlns:cc="http://creativecommons.org/ns#"
   xmlns:rdf="http://www.w3.org/1999/02/22-rdf-syntax-ns#"
   xmlns:svg="http://www.w3.org/2000/svg"
   xmlns="http://www.w3.org/2000/svg"
   xmlns:sodipodi="http://sodipodi.sourceforge.net/DTD/sodipodi-0.dtd"
   xmlns:inkscape="http://www.inkscape.org/namespaces/inkscape"
   width="210mm"
   height="297mm"
   viewBox="0 0 210 297"
   version="1.1"
   id="svg8"
   inkscape:version="0.92.3 (2405546, 2018-03-11)"
   sodipodi:docname="person.svg"
   inkscape:export-filename="C:\msys64\home\peterglen\pgpygtk\dbgui\images\person.png"
   inkscape:export-xdpi="97.25"
   inkscape:export-ydpi="97.25">
  <defs
     id="defs2">
    <inkscape:perspective
       sodipodi:type="inkscape:persp3d"
       inkscape:vp_x="-7.5595236 : 156.4375 : 1"
       inkscape:vp_y="0 : 1000 : 0"
       inkscape:vp_z="202.44048 : 156.4375 : 1"
       inkscape:persp3d-origin="97.440476 : 106.9375 : 1"
       id="perspective4523" />
  </defs>
  <sodipodi:namedview
     id="base"
     pagecolor="#ffffff"
     bordercolor="#666666"
     borderopacity="1.0"
     inkscape:pageopacity="0.0"
     inkscape:pageshadow="2"
     inkscape:zoom="1.4"
     inkscape:cx="305.19676"
     inkscape:cy="716.2394"
     inkscape:document-units="mm"
     inkscape:current-layer="layer1"
     showgrid="false"
     inkscape:snap-global="false"
     inkscape:window-width="1680"
     inkscape:window-height="1027"
     inkscape:window-x="1912"
     inkscape:window-y="15"
     inkscape:window-maximized="1" />
  <metadata
     id="metadata5">
    <rdf:RDF>
      <cc:Work
         rdf:about="">
        <dc:format>image/svg+xml</dc:format>
        <dc:type
           rdf:resource="http://purl.org/dc/dcmitype/StillImage" />
        <dc:title />
      </cc:Work>
    </rdf:RDF>
  </metadata>
  <g
     inkscape:label="Layer 1"
     inkscape:groupmode="layer"
     id="layer1">
    <path
       style="fill:#ffffff;fill-opacity:1;fill-rule:nonzero;stroke:none;stroke-width:0.29474583;stroke-miterlimit:4;stroke-dasharray:none;stroke-opacity:1"
       id="path10"
       ry="32.127975"
       rx="27.214285"
       cy="97.806541"
       cx="89.958336" />
    <path
       style="fill:#690a07;fill-opacity:1;fill-rule:nonzero;stroke:none;stroke-width:0.29474583;stroke-miterlimit:4;stroke-dasharray:none;stroke-opacity:1"
       id="path823"
       sodipodi:type="arc"
       sodipodi:cx="110.74702"
       sodipodi:cy="73.616081"
       sodipodi:rx="37.419643"
       sodipodi:ry="34.395832"
       sodipodi:start="6.2046201"
       sodipodi:end="6.2019228"
       d="M 148.05123,70.916545 A 37.419643,34.395832 0 0 1 113.70903,107.90399 37.419643,34.395832 0 0 1 73.446795,76.36186 37.419643,34.395832 0 0 1 107.7347,39.33188 37.419643,34.395832 0 0 1 148.04318,70.824065 l -37.29616,2.792016 z" />
    <path
       style="fill:#840a07;fill-opacity:1;fill-rule:nonzero;stroke:none;stroke-width:1.11399996;stroke-miterlimit:4;stroke-dasharray:none;stroke-opacity:1"
       d="M 428.80664 385.41211 A 232.85714 187.14284 0 0 0 405.54102 385.98438 A 232.85714 187.14284 0 0 0 192.17188 587.45898 A 232.85714 187.14284 0 0 0 201.19141 625.37695 L 647.38672 625.37695 A 232.85714 187.14284 0 0 0 656.42383 557.83398 L 424.28516 572.51953 L 656.375 557.32812 A 232.85714 187.14284 0 0 0 428.80664 385.41211 z "
       transform="scale(0.26458333)"
       id="path825" />
    <g
       sodipodi:type="inkscape:box3d"
       id="g4525"
       style="opacity:0.93199978;fill:#f7edd0;fill-opacity:1"
       inkscape:perspectiveID="#perspective4523"
       inkscape:corner0="0.26558215 : 0.072278601 : 0 : 1"
       inkscape:corner7="0.089393262 : 0.046048638 : 0.25 : 1">
      <path
         sodipodi:type="inkscape:box3dside"
         id="path4527"
         style="fill:#353564;fill-rule:evenodd;stroke:none;stroke-linejoin:round"
         inkscape:box3dsidetype="6"
         d="m 75.40625,122.56399 v 20.72561 l 20.954693,-0.44984 V 125.5329 Z"
         points="75.40625,143.2896 96.360943,142.83976 96.360943,125.5329 75.40625,122.56399 " />
      <path
         sodipodi:type="inkscape:box3dside"
         id="path4535"
         style="fill:#afafde;fill-rule:evenodd;stroke:none;stroke-linejoin:round"
         inkscape:box3dsidetype="13"
         d="m 75.40625,143.2896 13.418154,0.44106 21.206636,-0.59135 -13.670097,-0.29955 z"
         points="88.824404,143.73066 110.03104,143.13931 96.360943,142.83976 75.40625,143.2896 " />
      <path
         sodipodi:type="inkscape:box3dside"
         id="path4537"
         style="fill:#e9e9ff;fill-rule:evenodd;stroke:none;stroke-linejoin:round"
         inkscape:box3dsidetype="11"
         d="m 96.360943,125.5329 13.670097,-1.97705 v 19.58346 l -13.670097,-0.29955 z"
         points="110.03104,123.55585 110.03104,143.13931 96.360943,142.83976 96.360943,125.5329 " />
      <path
         sodipodi:type="inkscape:box3dside"
         id="path4529"
         style="fill:#4d4d9f;fill-rule:evenodd;stroke:none;stroke-linejoin:round"
         inkscape:box3dsidetype="5"
         d="m 75.40625,122.56399 13.418154,-2.91092 21.206636,3.90278 -13.670097,1.97705 z"
         points="88.824404,119.65307 110.03104,123.55585 96.360943,125.5329 75.40625,122.56399 " />
      <path
         sodipodi:type="inkscape:box3dside"
         id="path4533"
         style="fill:#d7d7ff;fill-rule:evenodd;stroke:none;stroke-linejoin:round"
         inkscape:box3dsidetype="14"
         d="m 88.824404,119.65307 v 24.07759 l 21.206636,-0.59135 v -19.58346 z"
         points="88.824404,143.73066 110.03104,143.13931 110.03104,123.55585 88.824404,119.65307 " />
      <path
         sodipodi:type="inkscape:box3dside"
         id="path4531"
         style="fill:#8686bf;fill-rule:evenodd;stroke:none;stroke-linejoin:round"
         inkscape:box3dsidetype="3"
         d="m 75.40625,122.56399 13.418154,-2.91092 v 24.07759 L 75.40625,143.2896 Z"
         points="88.824404,119.65307 88.824404,143.73066 75.40625,143.2896 75.40625,122.56399 " />
    </g>
  </g>
</svg>
